<svg xmlns="http://www.w3.org/2000/svg" width="400" height="400" fill="none" viewBox="0 0 400 400">
  <path fill="#4A09F4" d="M0 200c0-60.556 0-90.834 9.538-114.843a135 135 0 0175.62-75.619C109.165 0 139.443 0 200 0s90.834 0 114.843 9.538a135 135 0 0175.619 75.62C400 109.165 400 139.443 400 200s0 90.834-9.538 114.843a134.998 134.998 0 01-75.619 75.619C290.834 400 260.556 400 200 400c-60.556 0-90.834 0-114.843-9.538a135 135 0 01-75.619-75.619C0 290.834 0 260.556 0 200z"/>
  <path fill="#fff" d="M299.337 127.598c-.446 2.339-1.061 4.663-1.674 6.954l-38.762 144.887c-1.219 4.557-2.494 9.229-5.288 13.024-6.434 8.74-20.511 10.003-28.912 3.138-5.395-4.407-8.316-11.149-10.308-17.832-8.006-26.849-3.528-57.16 11.897-80.536 1.539-2.334 4.241-4.892 6.707-3.579.994.529 1.592 1.571 2.136 2.556 4.577 8.292 9.153 16.584 13.731 24.875.386.7.791 1.421 1.428 1.902.995.747 2.367.764 3.578.484 4.536-1.044 7.554-5.642 8.231-10.256.676-4.612-.5-9.274-1.67-13.788l-7.485-28.915c-.544-2.101-1.086-4.332-.453-6.407.567-1.855 1.994-3.302 3.387-4.653 6.565-6.368 13.824-12.942 15.941-21.847.624-2.624.697-5.603-.872-7.796-2.475-3.454-7.697-3.327-11.686-1.875-7.465 2.718-13.317 8.574-18.61 14.508-1.504 1.687-3.12 3.481-5.305 4.052-1.796.468-3.691.03-5.495-.41l-39.217-9.549c-1.449-.354-2.976-.705-4.413-.305-1.503.418-2.661 1.589-3.743 2.715l-5.767 5.994c-.814.844-1.692 1.922-1.39 3.055.239.892 1.125 1.428 1.934 1.869l26.123 14.282c1.263.69 2.608 1.468 3.198 2.78 1.259 2.795-1.579 5.645-4.164 7.287-21.5 13.656-48.47 17.434-73.502 12.786-8.184-1.521-16.566-4.095-22.512-9.928a21.713 21.713 0 01-5.969-10.82c-.435-2.01-.56-4.094-.285-6.135.136-1.006.368-1.998.704-2.955.334-.954.55-1.865.946-2.779.816-1.882 1.287-3.218 2.446-4.717 1.149-1.488 2.628-2.691 4.216-3.682 3.356-2.098 7.2-3.337 10.998-4.358 48.708-13.095 97.417-26.188 146.125-39.285 5.365-1.441 10.906-2.895 16.407-2.126 8.989 1.255 16.643 9.038 17.822 18.053.408 3.113.117 6.236-.473 9.332"/>
  <path fill="#fff" d="M132.864 276.184l-9.139-9.264c-8.967-9.089-8.967-23.823 0-32.911l18.937-19.194a22.75 22.75 0 0132.474 0l9.138 9.263c8.968 9.088 8.968 23.824 0 32.912l-18.937 19.194a22.747 22.747 0 01-32.473 0"/>
</svg>
